<svg xmlns="http://www.w3.org/2000/svg" width="16" height="16" viewBox="0 0 16 16" fill="none">
<path fill-rule="evenodd" clip-rule="evenodd" d="M11.293 5.28694C11.4816 5.10478 11.7342 5.00398 11.9964 5.00626C12.2586 5.00854 12.5094 5.11371 12.6948 5.29912C12.8802 5.48453 12.9854 5.73534 12.9877 5.99754C12.99 6.25973 12.8892 6.51234 12.707 6.70094L8.70701 10.7009C8.51948 10.8884 8.26517 10.9937 8.00001 10.9937C7.73485 10.9937 7.48054 10.8884 7.29301 10.7009L3.29301 6.70094C3.11085 6.51234 3.01006 6.25973 3.01234 5.99754C3.01461 5.73534 3.11978 5.48453 3.30519 5.29912C3.4906 5.11371 3.74141 5.00854 4.00361 5.00626C4.26581 5.00398 4.51841 5.10478 4.70701 5.28694L8.00001 8.57994L11.293 5.28694Z" fill="#ffff"/>
</svg>