<svg xmlns="http://www.w3.org/2000/svg" width="24" height="18" viewBox="0 0 24 18" fill="none">
<path d="M1.63636 18.0044H5.45455V8.73166L0 4.64075V16.368C0 17.2721 0.732273 18.0044 1.63636 18.0044Z" fill="white"/>
<path d="M18.5455 18.0044H22.3636C23.2677 18.0044 24 17.2721 24 16.368V4.64076L18.5455 8.73167V18.0044Z" fill="white"/>
<path d="M18.5455 1.64077V8.73167L24 4.64076V2.45896C24 0.436682 21.6914 -0.718318 20.0727 0.495318L18.5455 1.64077Z" fill="white"/>
<path fill-rule="evenodd" clip-rule="evenodd" d="M5.45455 8.73166V1.64076L12 6.54985L18.5455 1.64077V8.73167L12 13.6408L5.45455 8.73166Z" fill="white"/>
<path d="M0 2.45896V4.64075L5.45455 8.73166V1.64076L3.92727 0.495318C2.30864 -0.718318 0 0.436682 0 2.45896Z" fill="white"/>
</svg>