<svg xmlns="http://www.w3.org/2000/svg" width="24" height="24" viewBox="0 0 24 24" fill="none">
<g clip-path="url(#clip0_14_1509)">
<path d="M22.2234 0.333374H1.77187C0.792187 0.333374 0 1.08533 0 2.01501V21.9805C0 22.9102 0.792187 23.6667 1.77187 23.6667H22.2234C23.2031 23.6667 24 22.9102 24 21.9851V2.01501C24 1.08533 23.2031 0.333374 22.2234 0.333374ZM7.12031 20.2168H3.55781V9.07882H7.12031V20.2168ZM5.33906 7.56124C4.19531 7.56124 3.27188 6.66345 3.27188 5.55603C3.27188 4.44861 4.19531 3.55082 5.33906 3.55082C6.47813 3.55082 7.40156 4.44861 7.40156 5.55603C7.40156 6.6589 6.47813 7.56124 5.33906 7.56124ZM20.4516 20.2168H16.8937V14.8028C16.8937 13.5131 16.8703 11.8497 15.0422 11.8497C13.1906 11.8497 12.9094 13.2579 12.9094 14.7116V20.2168H9.35625V9.07882H12.7687V10.601H12.8156C13.2891 9.72595 14.4516 8.80082 16.1813 8.80082C19.7859 8.80082 20.4516 11.1068 20.4516 14.1055V20.2168V20.2168Z" fill="white"/>
</g>
<defs>
<clipPath id="clip0_14_1509">
<rect width="24" height="23.3333" fill="white" transform="translate(0 0.333374)"/>
</clipPath>
</defs>
</svg>