<svg xmlns="http://www.w3.org/2000/svg" width="38" height="35" viewBox="0 0 38 35" fill="none">
<path d="M34.01 34.5001H3.99C2.93179 34.5001 1.91691 34.0661 1.16864 33.2936C0.420374 32.5211 0 31.4734 0 30.3809V10.9617H38V30.3809C38 31.4734 37.5796 32.5211 36.8314 33.2936C36.0831 34.0661 35.0682 34.5001 34.01 34.5001ZM2.53333 13.5771V30.3809C2.53333 30.7797 2.6868 31.1623 2.95998 31.4443C3.09525 31.5839 3.25583 31.6947 3.43256 31.7703C3.60929 31.8458 3.79871 31.8847 3.99 31.8847H34.01C34.3963 31.8847 34.7668 31.7263 35.04 31.4443C35.3132 31.1623 35.4667 30.7797 35.4667 30.3809V13.5771H2.53333Z" fill="white" fill-opacity="0.67"/>
<path d="M38 13.5769H0V4.61923C0 3.52674 0.420374 2.479 1.16864 1.70649C1.91691 0.933989 2.93179 0.5 3.99 0.5H34.01C35.0682 0.5 36.0831 0.933989 36.8314 1.70649C37.5796 2.479 38 3.52674 38 4.61923V13.5769ZM2.53333 10.9615H35.4667V4.61923C35.4667 4.22039 35.3132 3.83788 35.04 3.55585C34.7668 3.27383 34.3963 3.11538 34.01 3.11538H3.99C3.60367 3.11538 3.23316 3.27383 2.95998 3.55585C2.6868 3.83788 2.53333 4.22039 2.53333 4.61923V10.9615Z" fill="white" fill-opacity="0.67"/>
<path d="M19.746 1.21874L16.249 11.842L18.6476 12.6836L22.1446 2.0603L19.746 1.21874Z" fill="white" fill-opacity="0.67"/>
<path d="M29.5069 1.21592L26.0117 11.8398L28.4105 12.681L31.9057 2.05704L29.5069 1.21592Z" fill="white" fill-opacity="0.67"/>
<path d="M9.58538 1.22412L6.08838 11.8474L8.48698 12.689L11.984 2.06567L9.58538 1.22412Z" fill="white"/>
<path d="M16.821 28.6805C16.4481 28.6805 16.0905 28.5276 15.8268 28.2554C15.5632 27.9832 15.415 27.614 15.415 27.229V18.0752C15.4159 17.8149 15.4845 17.5598 15.6137 17.3363C15.7429 17.1129 15.9279 16.9294 16.1493 16.805C16.3707 16.6807 16.6204 16.6201 16.8723 16.6296C17.1242 16.6391 17.369 16.7183 17.581 16.859L24.4717 21.4359C24.6677 21.5678 24.8288 21.7481 24.9403 21.9604C25.0518 22.1728 25.1101 22.4105 25.1101 22.6521C25.1101 22.8936 25.0518 23.1314 24.9403 23.3437C24.8288 23.5561 24.6677 23.7364 24.4717 23.8682L17.581 28.4582C17.3538 28.6065 17.0898 28.6837 16.821 28.6805ZM17.9484 20.1936V25.0844L21.6217 22.6521L17.9484 20.1936Z" fill="white"/>
</svg>