<svg xmlns="http://www.w3.org/2000/svg" width="31" height="32" viewBox="0 0 31 32" fill="none">
<path fill-rule="evenodd" clip-rule="evenodd" d="M9.97406 9.04892C9.61647 8.6549 9.42132 8.13279 9.42985 7.59296C9.43838 7.05312 9.64992 6.53786 10.0198 6.15609C10.3896 5.77432 10.8888 5.55596 11.4117 5.54715C11.9347 5.53835 12.4405 5.7398 12.8222 6.10892L20.981 14.5309C21.3584 14.9209 21.5704 15.4496 21.5704 16.0009C21.5704 16.5522 21.3584 17.0809 20.981 17.4709L12.8241 25.8909C12.4424 26.26 11.9366 26.4615 11.4137 26.4527C10.8907 26.4439 10.3915 26.2255 10.0217 25.8437C9.65186 25.462 9.44031 24.9467 9.43179 24.4069C9.42326 23.867 9.61841 23.3449 9.976 22.9509L16.7088 16.0009L9.97406 9.04892Z" fill="#C9C9C9"/>
</svg>