<svg xmlns="http://www.w3.org/2000/svg" width="32" height="32" viewBox="0 0 32 32" fill="none">
<path fill-rule="evenodd" clip-rule="evenodd" d="M21.5249 22.9512C21.8825 23.3452 22.0776 23.8673 22.0691 24.4071C22.0606 24.947 21.849 25.4622 21.4792 25.844C21.1093 26.2258 20.6102 26.4441 20.0872 26.4529C19.5642 26.4617 19.0585 26.2603 18.6767 25.8912L10.5199 17.4692C10.1424 17.0791 9.93045 16.5504 9.93045 15.9992C9.93045 15.4479 10.1424 14.9192 10.5199 14.5292L18.6767 6.10916C19.0585 5.74004 19.5642 5.53859 20.0872 5.5474C20.6102 5.5562 21.1093 5.77457 21.4792 6.15634C21.849 6.53811 22.0606 7.05337 22.0691 7.5932C22.0776 8.13304 21.8825 8.65514 21.5249 9.04916L14.7921 15.9992L21.5249 22.9512V22.9512Z" fill="#C9C9C9"/>
</svg>

