<svg xmlns="http://www.w3.org/2000/svg" width="40" height="38" viewBox="0 0 40 38" fill="none">
<path fill-rule="evenodd" clip-rule="evenodd" d="M16.6206 24.4551C11.5831 24.4551 7.50061 20.5768 7.50061 15.7911C7.50061 11.0055 11.5831 7.12476 16.6206 7.12476C21.6581 7.12476 25.7406 11.0055 25.7406 15.7911C25.7406 20.5768 21.6581 24.4551 16.6206 24.4551ZM36.7681 30.0269L28.9981 23.0539C28.8881 22.9494 28.7481 22.8995 28.6256 22.8188C29.9581 20.7715 30.7406 18.368 30.7406 15.7911C30.7406 8.39301 24.4081 2.37476 16.6206 2.37476C8.83311 2.37476 2.50061 8.39301 2.50061 15.7911C2.50061 23.1869 8.83311 29.2051 16.6206 29.2051C19.1231 29.2051 21.4706 28.5781 23.5106 27.488C23.6131 27.6471 23.6906 27.8181 23.8381 27.9559L31.6081 34.9289C32.5831 35.8575 34.1656 35.8575 35.1431 34.9289L36.7681 33.3851C37.7431 32.4589 37.7431 30.9555 36.7681 30.0269Z" fill="white" fill-opacity="0.5"/>
</svg>